<svg version="1.1" id="Capa_1" xmlns="http://www.w3.org/2000/svg" xmlns:xlink="http://www.w3.org/1999/xlink" x="0px" y="0px" viewBox="0 0 512 512" style="enable-background:new 0 0 512 512;" xml:space="preserve">
    <style type="text/css">
      .st0{fill:#FAFAFA;}
      .st1{fill:#455A64;}
      .st2{fill:#1C769B;}
      .st3{fill:#2795B7;}
      .st4{fill:#3FB5D1;}
    </style>
    <g>
      <path class="st2" d="M102.7,325.1c0,69.3,40.3,129.2,98.7,157.6l-83.6-228.9C108.2,275.6,102.7,299.7,102.7,325.1z"></path>
      <path class="st2" d="M280.9,340.5l-52.6,152.7c15.7,4.6,32.3,7.1,49.5,7.1c20.4,0,40-3.5,58.2-9.9c-0.5-0.8-0.9-1.5-1.2-2.4
        L280.9,340.5z"></path>
      <path class="st2" d="M396.1,316.3c0-21.7-7.8-36.6-14.4-48.3c-8.9-14.4-17.2-26.7-17.2-41.1c0-16.1,12.2-31.1,29.4-31.1
        c0.8,0,1.5,0.1,2.3,0.1c-31.1-28.6-72.7-46-118.3-46c-61.2,0-115,31.4-146.3,78.9c4.1,0.1,8,0.2,11.3,0.2c18.3,0,46.7-2.2,46.7-2.2
        c9.4-0.6,10.5,13.3,1.1,14.4c0,0-9.5,1.1-20,1.7l63.8,189.7l38.3-115L245.4,243c-9.4-0.6-18.4-1.7-18.4-1.7
        c-9.4-0.6-8.3-15,1.1-14.4c0,0,28.9,2.2,46.1,2.2c18.3,0,46.7-2.2,46.7-2.2c9.4-0.6,10.6,13.3,1.1,14.4c0,0-9.5,1.1-20,1.7
        l63.3,188.3l17.5-58.4C390.3,348.7,396.1,331.3,396.1,316.3z"></path>
      <path class="st2" d="M432.7,259.1c0,17.8-3.3,37.7-13.3,62.7l-53.5,154.7C418,446.2,453,389.8,453,325.1c0-30.5-7.8-59.1-21.5-84
        C432.3,246.7,432.7,252.7,432.7,259.1z"></path>
    </g>
    </svg>