<svg version="1.1" id="Capa_1" xmlns="http://www.w3.org/2000/svg" xmlns:xlink="http://www.w3.org/1999/xlink" x="0px" y="0px" viewBox="-49 141 512 512" style="enable-background:new -49 141 512 512;" xml:space="preserve">
    <style type="text/css">
      .st0{fill:#FAFAFA;}
      .st1{fill:#455A64;}
      .st2{fill:#1C769B;}
      .st3{fill:#2795B7;}
      .st4{fill:#3FB5D1;}
    </style>
    <g>
      <path class="st0" d="M297.9,424.5c-7.4,0-13.3-6-13.3-13.3v-53.4c0-7.4,6-13.3,13.3-13.3s13.3,6,13.3,13.3v53.4
        C311.2,418.5,305.2,424.5,297.9,424.5z"></path>
      <path class="st0" d="M217.8,424.5c-7.4,0-13.3-6-13.3-13.3v-53.4c0-7.4,6-13.3,13.3-13.3s13.3,6,13.3,13.3v53.4
        C231.2,418.5,225.2,424.5,217.8,424.5z"></path>
      <path class="st0" d="M137.8,424.5c-7.4,0-13.3-6-13.3-13.3v-53.4c0-7.4,6-13.3,13.3-13.3s13.3,6,13.3,13.3v53.4
        C151.1,418.5,145.1,424.5,137.8,424.5z"></path>
    </g>
    <g>
      <circle class="st1" cx="130.2" cy="598.1" r="39.2"></circle>
      <circle class="st1" cx="287.2" cy="598.1" r="39.2"></circle>
      <path class="st1" d="M313.3,532.7H104.1c-5.9,0-11.1-4-12.6-9.7L24.2,271.1h-50.9c-7.2,0-13.1-5.9-13.1-13.1s5.9-13.1,13.1-13.1
        h60.9c5.9,0,11.1,4,12.6,9.7l67.2,251.9h199.2c7.2,0,13.1,5.9,13.1,13.1S320.5,532.7,313.3,532.7z"></path>
    </g>
    <g>
      <path class="st2" d="M102.7,325.1c0,69.3,40.3,129.2,98.7,157.6l-83.6-228.9C108.2,275.6,102.7,299.7,102.7,325.1z"></path>
      <path class="st2" d="M280.9,340.5l-52.6,152.7c15.7,4.6,32.3,7.1,49.5,7.1c20.4,0,40-3.5,58.2-9.9c-0.5-0.8-0.9-1.5-1.2-2.4
        L280.9,340.5z"></path>
      <path class="st2" d="M396.1,316.3c0-21.7-7.8-36.6-14.4-48.3c-8.9-14.4-17.2-26.7-17.2-41.1c0-16.1,12.2-31.1,29.4-31.1
        c0.8,0,1.5,0.1,2.3,0.1c-31.1-28.6-72.7-46-118.3-46c-61.2,0-115,31.4-146.3,78.9c4.1,0.1,8,0.2,11.3,0.2c18.3,0,46.7-2.2,46.7-2.2
        c9.4-0.6,10.5,13.3,1.1,14.4c0,0-9.5,1.1-20,1.7l63.8,189.7l38.3-115L245.4,243c-9.4-0.6-18.4-1.7-18.4-1.7
        c-9.4-0.6-8.3-15,1.1-14.4c0,0,28.9,2.2,46.1,2.2c18.3,0,46.7-2.2,46.7-2.2c9.4-0.6,10.6,13.3,1.1,14.4c0,0-9.5,1.1-20,1.7
        l63.3,188.3l17.5-58.4C390.3,348.7,396.1,331.3,396.1,316.3z"></path>
      <path class="st2" d="M432.7,259.1c0,17.8-3.3,37.7-13.3,62.7l-53.5,154.7C418,446.2,453,389.8,453,325.1c0-30.5-7.8-59.1-21.5-84
        C432.3,246.7,432.7,252.7,432.7,259.1z"></path>
    </g>
    <path class="st3" d="M364.5,226.9c0-16.1,12.2-31.1,29.4-31.1c0.8,0,1.5,0.1,2.3,0.1c-31.1-28.5-72.7-46-118.3-46
      c-61.2,0-115,31.4-146.3,78.9c4.1,0.1,8,0.2,11.3,0.2c18.3,0,46.7-2.2,46.7-2.2c9.4-0.6,10.5,13.3,1.1,14.4c0,0-9.5,1.1-20,1.7
      l24.3,72.3c16.5,5.8,34.5,9.1,53.2,9.1c7.8,0,15.4-0.6,22.9-1.6l1.7-5L245.4,243c-9.4-0.6-18.4-1.7-18.4-1.7
      c-9.4-0.6-8.3-15,1.1-14.4c0,0,28.9,2.2,46.1,2.2c18.3,0,46.7-2.2,46.7-2.2c9.4-0.6,10.6,13.3,1.1,14.4c0,0-9.5,1.1-20,1.7
      l21.1,62.7c21.4-11.5,39.5-27.7,52.7-47.2C369.4,247.9,364.5,238.1,364.5,226.9z"></path>
    <path class="st4" d="M277.9,150c-55,0-103.9,25.4-136,65c28.2,5.9,59.1,9.1,91.6,9.1c61.5,0,117.6-11.6,159.7-30.7
      C362.4,166.4,322,150,277.9,150z"></path>
    </svg>